<svg width="20" height="20" viewBox="0 0 20 20" fill="none" xmlns="http://www.w3.org/2000/svg">
<path d="M9.16672 4.5833C9.1669 5.28478 8.91425 5.96284 8.45509 6.49317C7.99592 7.0235 7.36101 7.37059 6.66671 7.4708V9.5833H11.875C12.3723 9.5833 12.8492 9.38575 13.2009 9.03412C13.5525 8.68249 13.75 8.20558 13.75 7.7083V7.37913C13.0803 7.17728 12.5054 6.74159 12.1299 6.15142C11.7545 5.56124 11.6035 4.85584 11.7044 4.16369C11.8054 3.47153 12.1516 2.83866 12.68 2.38034C13.2085 1.92203 13.8839 1.66875 14.5834 1.66663C15.3217 1.6653 16.033 1.94401 16.5739 2.44655C17.1148 2.94908 17.445 3.63804 17.4978 4.37445C17.5507 5.11086 17.3223 5.83991 16.8588 6.41455C16.3952 6.98919 15.731 7.36666 15 7.4708V7.7083C15 8.5371 14.6708 9.33196 14.0848 9.91801C13.4987 10.5041 12.7039 10.8333 11.875 10.8333H6.66671V12.5291C7.37832 12.6318 8.02691 12.9938 8.48799 13.5454C8.94906 14.0971 9.19013 14.7996 9.16492 15.5182C9.13971 16.2367 8.84999 16.9206 8.35139 17.4386C7.85278 17.9566 7.18042 18.2722 6.46336 18.3247C5.74631 18.3773 5.03511 18.1632 4.46627 17.7235C3.89743 17.2838 3.51104 16.6495 3.38128 15.9423C3.25152 15.2351 3.38752 14.5049 3.76319 13.8919C4.13886 13.2789 4.72771 12.8262 5.41671 12.6208V7.37913C4.74699 7.17728 4.17204 6.74159 3.79658 6.15142C3.42113 5.56124 3.27013 4.85584 3.3711 4.16369C3.47207 3.47153 3.81829 2.83866 4.3467 2.38034C4.87512 1.92203 5.55057 1.66875 6.25005 1.66663C7.0236 1.66663 7.76546 1.97392 8.31244 2.5209C8.85942 3.06788 9.16672 3.80975 9.16672 4.5833ZM6.25005 6.24996C6.69208 6.24996 7.116 6.07437 7.42856 5.76181C7.74112 5.44925 7.91672 5.02533 7.91672 4.5833C7.91672 4.14127 7.74112 3.71735 7.42856 3.40479C7.116 3.09223 6.69208 2.91663 6.25005 2.91663C5.80802 2.91663 5.3841 3.09223 5.07154 3.40479C4.75898 3.71735 4.58338 4.14127 4.58338 4.5833C4.58338 5.02533 4.75898 5.44925 5.07154 5.76181C5.3841 6.07437 5.80802 6.24996 6.25005 6.24996ZM14.5834 6.24996C15.0254 6.24996 15.4493 6.07437 15.7619 5.76181C16.0745 5.44925 16.25 5.02533 16.25 4.5833C16.25 4.14127 16.0745 3.71735 15.7619 3.40479C15.4493 3.09223 15.0254 2.91663 14.5834 2.91663C14.1414 2.91663 13.7174 3.09223 13.4049 3.40479C13.0923 3.71735 12.9167 4.14127 12.9167 4.5833C12.9167 5.02533 13.0923 5.44925 13.4049 5.76181C13.7174 6.07437 14.1414 6.24996 14.5834 6.24996ZM7.91672 15.4166C7.91672 14.9746 7.74112 14.5507 7.42856 14.2381C7.116 13.9256 6.69208 13.75 6.25005 13.75C5.80802 13.75 5.3841 13.9256 5.07154 14.2381C4.75898 14.5507 4.58338 14.9746 4.58338 15.4166C4.58338 15.8587 4.75898 16.2826 5.07154 16.5951C5.3841 16.9077 5.80802 17.0833 6.25005 17.0833C6.69208 17.0833 7.116 16.9077 7.42856 16.5951C7.74112 16.2826 7.91672 15.8587 7.91672 15.4166Z" fill="black"/>
</svg>
